<svg width="22" height="22" viewBox="0 0 22 22" fill="none" xmlns="http://www.w3.org/2000/svg">
<path d="M5.99978 9.75011V16.0001M5.99978 6.00011V6.01261M10.9999 16.0001V9.75011M15.9999 16.0001V12.2501C15.9999 11.5871 15.7365 10.9512 15.2677 10.4823C14.7988 10.0135 14.1629 9.75011 13.4999 9.75011C12.8368 9.75011 12.201 10.0135 11.7321 10.4823C11.2633 10.9512 10.9999 11.5871 10.9999 12.2501M3.5 1H18.5C19.8807 1 21 2.11929 21 3.5V18.5C21 19.8807 19.8807 21 18.5 21H3.5C2.11929 21 1 19.8807 1 18.5V3.5C1 2.11929 2.11929 1 3.5 1Z" stroke="#828282" stroke-width="2" stroke-linecap="round" stroke-linejoin="round"/>
</svg>
