<svg width="27" height="22" viewBox="0 0 27 22" fill="none" xmlns="http://www.w3.org/2000/svg">
<path d="M25.9525 1.13799C24.7048 1.74932 23.4822 1.9976 22.2096 2.37313C20.811 0.79489 18.7375 0.707556 16.745 1.45363C14.7526 2.19971 13.4475 4.02374 13.4762 6.116V7.36363C9.4277 7.46718 5.82206 5.62319 3.49525 2.37313C3.49525 2.37313 -1.72231 11.6467 8.48574 16.097C6.15019 17.6528 3.82088 18.702 1 18.5922C5.12714 20.8417 9.62482 21.6152 13.5187 20.4849C17.9851 19.1874 21.6557 15.84 23.0642 10.8258C23.4844 9.30077 23.693 7.72526 23.6843 6.14345C23.6818 5.83279 25.5682 2.68504 25.9525 1.13674V1.13799Z" stroke="#828282" stroke-width="2" stroke-linecap="round" stroke-linejoin="round"/>
</svg>
